HIERARCHY
ROOT ui
{
	 OFFSET 0 0 0
	 CHANNELS 3 XPosition YPosition Z Position
	 EndSite
	 {
	 OFFSET 0 -1 0
	 }
}
ROOT li
{
	 OFFSET 0 0 0
	 CHANNELS 3 XPosition YPosition Z Position
	 EndSite
	 {
	 OFFSET 0 -1 0
	 }
}
ROOT ul
{
	 OFFSET 0 0 0
	 CHANNELS 3 XPosition YPosition Z Position
	 EndSite
	 {
	 OFFSET 0 -1 0
	 }
}
ROOT ll
{
	 OFFSET 0 0 0
	 CHANNELS 3 XPosition YPosition Z Position
	 EndSite
	 {
	 OFFSET 0 -1 0
	 }
}
ROOT tt
{
	 OFFSET 0 0 0
	 CHANNELS 3 XPosition YPosition Z Position
	 EndSite
	 {
	 OFFSET 0 -1 0
	 }
}
ROOT tb
{
	 OFFSET 0 0 0
	 CHANNELS 3 XPosition YPosition Z Position
	 EndSite
	 {
	 OFFSET 0 -1 0
	 }
}
ROOT td
{
	 OFFSET 0 0 0
	 CHANNELS 3 XPosition YPosition Z Position
	 EndSite
	 {
	 OFFSET 0 -1 0
	 }
}
ROOT v
{
	 OFFSET 0 0 0
	 CHANNELS 3 XPosition YPosition Z Position
	 EndSite
	 {
	 OFFSET 0 -1 0
	 }
}
ROOT bn
{
	 OFFSET 0 0 0
	 CHANNELS 3 XPosition YPosition Z Position
	 EndSite
	 {
	 OFFSET 0 -1 0
	 }
}
MOTION
Frames: 24
Frame Time: 0.002
0.018586696624755858	-7.622810006141662E-4	0		0.5949632568359375	-2.59598828125	0		-1.0761256103515624	-0.134414794921875	0		-0.5182345581054687	-2.605406005859375	0		2.7914013671875	-2.08175048828125	0		4.082205322265625	-0.7944047241210938	0		5.26778076171875	-0.09881905364990234	0		6.00012109375	0.49828955078125	0		-0.18379290771484375	5.87014404296875	0		
-5.052769780158996E-4	0.006485805988311767	0		0.5827679443359375	-2.589845947265625	0		-1.01019189453125	-0.12516886138916017	0		-0.4496319885253906	-2.61621484375	0		2.8172578125	-2.07314990234375	0		4.05762109375	-0.825234375	0		5.27123095703125	-0.12903277587890624	0		5.99487451171875	0.49115869140625	0		-0.18474258422851564	5.87217919921875	0		
-0.007772649765014648	-4.041930139064789E-4	0		0.60338525390625	-2.599099365234375	0		-1.0103783569335938	-0.12511079406738282	0		-0.49699819946289064	-2.623598388671875	0		2.8080791015625	-2.067112548828125	0		4.07445849609375	-0.8215582885742188	0		5.2659345703125	-0.13812722778320313	0		5.994708984375	0.49097747802734376	0		-0.19887042236328126	5.8603818359375	0		
-0.007959980964660645	-3.7294000387191775E-4	0		0.5751136474609375	-2.598743896484375	0		-1.0146187744140625	-0.1289967041015625	0		-0.45549737548828123	-2.64206640625	0		2.832722900390625	-2.07548193359375	0		4.0990205078125	-0.839968994140625	0		5.26063232421875	-0.14720907592773438	0		5.9945380859375	0.4908092041015625	0		-0.18472866821289063	5.87124658203125	0		
-0.008153200149536133	-3.339479863643646E-4	0		0.5827007446289062	-2.6098212890625	0		-1.0887611083984374	-0.1240128173828125	0		-0.5218567504882813	-2.6481982421875	0		2.8215625	-2.06739892578125	0		4.090084716796875	-0.8169525756835937	0		5.26938427734375	-0.15144993591308595	0		5.998458984375	0.4986055603027344	0		-0.18374581909179688	5.87027880859375	0		
-0.008351218223571778	-2.869270145893097E-4	0		0.58445947265625	-2.6068173828125	0		-1.0128698120117188	-0.1168730926513672	0		-0.4552896423339844	-2.660963134765625	0		2.841361328125	-2.062686767578125	0		4.1075263671875	-0.8442520141601563	0		5.269181640625	-0.15156504821777345	0		5.994177734375	0.49051812744140627	0		-0.18376347351074218	5.87033154296875	0		
0.01744669532775879	-5.537930130958557E-4	0		0.582146484375	-2.609754150390625	0		-1.0149616088867188	-0.10776432037353516	0		-0.45962884521484376	-2.6658447265625	0		2.826387451171875	-2.039530029296875	0		4.1044755859375	-0.8302802734375	0		5.26975390625	-0.16967425537109376	0		5.99399169921875	0.4903988342285156	0		-0.18379267883300782	5.87039208984375	0		
0.017247308731079103	-4.901930093765259E-4	0		0.6047872314453125	-2.6169912109375	0		-1.0251383056640626	-0.10554850006103515	0		-0.47002435302734374	-2.67564306640625	0		2.8411064453125	-2.041729248046875	0		4.1070791015625	-0.8443642578125	0		5.26726416015625	-0.19272723388671875	0		6.00180517578125	0.49020010375976564	0		-0.18383200073242187	5.8704609375	0		
-0.011985564231872558	-0.0030557940006256104	0		0.5735010375976562	-2.618546875	0		-1.0231895141601564	-0.09347490692138671	0		-0.46548907470703127	-2.69161865234375	0		2.8261572265625	-2.017542236328125	0		4.10992236328125	-0.839431884765625	0		5.27012353515625	-0.1878240509033203	0		5.9936201171875	0.49022210693359375	0		-0.18388188171386718	5.8705390625	0		
-0.009145392417907714	-9.142999537289142E-6	0		0.5851683959960937	-2.624625244140625	0		-1.0124019165039062	-0.09450456237792969	0		-0.4718219909667969	-2.69744873046875	0		2.841962646484375	-2.0137227783203127	0		4.154353515625	-0.8680009765625	0		5.27965966796875	-0.20898374938964845	0		5.9934345703125	0.49016891479492186	0		-0.16683351135253907	5.87941455078125	0		
-0.009341806411743163	8.672600239515304E-5	0		0.5958301391601563	-2.63167822265625	0		-1.0934814453125	-0.08437709045410156	0		-0.5011961364746094	-2.70698046875	0		2.8590361328125	-1.9888994140625	0		4.1385400390625	-0.835792724609375	0		5.28943310546875	-0.21112060546875	0		5.99734765625	0.4980916442871094	0		-0.16593496704101562	5.87750146484375	0		
0.027585704803466796	0.009731871604919434	0		0.6126621704101562	-2.62579345703125	0		-1.0225081176757813	-0.07113822937011718	0		-0.48752780151367187	-2.714037353515625	0		2.821246826171875	-1.9533692626953125	0		4.1470419921875	-0.8588687133789062	0		5.2851474609375	-0.21805580139160155	0		5.99306201171875	0.49014389038085937	0		-0.18312350463867189	5.869826171875	0		
-0.009728200912475586	3.1790301203727723E-4	0		0.5704962158203125	-2.62015478515625	0		-1.0277506103515626	-0.07493740844726562	0		-0.4999228820800781	-2.72675634765625	0		2.830187255859375	-1.9404039306640626	0		4.14095068359375	-0.8497354736328125	0		5.2844638671875	-0.25701132202148436	0		6.00087744140625	0.49007431030273435	0		-0.18322544860839843	5.869951171875	0		
-0.009916761398315429	4.536629915237427E-4	0		0.6030709838867188	-2.63643896484375	0		-1.0398138427734376	-0.06463896179199219	0		-0.47633627319335936	-2.7419140625	0		2.82927490234375	-1.9162938232421876	0		4.1466376953125	-0.858727294921875	0		5.28144775390625	-0.24290675354003907	0		5.99269580078125	0.49023348999023436	0		-0.18333895874023437	5.87008935546875	0		
-0.01010190486907959	6.01859986782074E-4	0		0.5878096313476563	-2.640108642578125	0		-1.0399996337890625	-0.06448013305664063	0		-0.5087354125976562	-2.7563583984375	0		2.824296142578125	-1.898113525390625	0		4.15965625	-0.8417864990234375	0		5.2961083984375	-0.2550004425048828	0		6.00051513671875	0.4902193603515625	0		-0.1834635009765625	5.8702392578125	0		
0.015716086387634276	4.3485599756240843E-4	0		0.6145816040039063	-2.642292724609375	0		-1.0461168212890626	-0.05923762893676758	0		-0.5109620666503907	-2.758169677734375	0		2.84143896484375	-1.8711920166015625	0		4.17530517578125	-0.8548597412109376	0		5.30768701171875	-0.274031982421875	0		5.99233935546875	0.490431884765625	0		-0.18458457946777343	5.87141259765625	0		
-0.010453968048095704	9.306889772415162E-4	0		0.58742236328125	-2.639787841796875	0		-1.060049560546875	-0.03988824462890625	0		-0.4364440307617187	-2.78193798828125	0		2.8527080078125	-1.83517919921875	0		4.19421484375	-0.847952392578125	0		5.307513671875	-0.2738916015625	0		6.00016943359375	0.4904680480957031	0		-0.15065199279785157	5.8771552734375	0		
0.015382126808166504	7.818539738655091E-4	0		0.6101625366210938	-2.646900146484375	0		-1.0602115478515626	-0.03970715713500977	0		-0.5156333618164063	-2.782765869140625	0		2.815046142578125	-1.794535888671875	0		4.1879501953125	-0.8557115478515624	0		5.318111328125	-0.2928669128417969	0		5.99512255859375	0.49968939208984375	0		-0.18585572814941406	5.87277392578125	0		
-0.010765667915344238	0.001293159008026123	0		0.581025146484375	-2.645351806640625	0		-1.052261474609375	-0.03162273216247559	0		-0.4628653259277344	-2.789246337890625	0		2.833395751953125	-1.754583251953125	0		4.1938994140625	-0.8476067504882813	0		5.3256337890625	-0.31878555297851563	0		5.99985986328125	0.49080648803710936	0		-0.18600025939941406	5.87295849609375	0		
0.012045625686645509	-0.0028059210777282716	0		0.5907774658203125	-2.65428662109375	0		-1.0523980712890626	-0.031434261322021484	0		-0.5290942993164063	-2.796227294921875	0		2.8247392578125	-1.716280517578125	0		4.19355029296875	-0.8644113159179687	0		5.31447314453125	-0.3204519348144531	0		5.99172314453125	0.49110299682617187	0		-0.17001878356933595	5.8829462890625	0		
0.0018985129594802856	-0.004487331867218018	0		0.5947120361328125	-2.650142578125	0		-1.04343359375	-0.024358028411865233	0		-0.45045416259765625	-2.81602685546875	0		2.841172607421875	-1.6722843017578124	0		4.23186669921875	-0.8296868896484375	0		5.33431201171875	-0.3234952697753906	0		6.00369873046875	0.49916116333007815	0		-0.17015802001953126	5.883138671875	0		
0.01486349391937256	0.001543576955795288	0		0.586752685546875	-2.638845947265625	0		-1.0454296875	-0.015143431663513184	0		-0.539444091796875	-2.80671728515625	0		2.837711181640625	-1.6210313720703124	0		4.20959912109375	-0.8421970825195313	0		5.33011669921875	-0.33022723388671876	0		5.99148779296875	0.4915325927734375	0		-0.1864040985107422	5.8745341796875	0		
-0.011232330322265624	0.002065551996231079	0		0.5795565795898437	-2.64755859375	0		-1.0455274658203124	-0.014953482627868652	0		-0.4787576599121094	-2.825288818359375	0		2.82227587890625	-1.5686239013671874	0		4.22452978515625	-0.8401674194335937	0		5.33591943359375	-0.33807781982421875	0		5.99138720703125	0.49176022338867187	0		-0.18653341674804688	5.874728515625	0		
0.014676069259643555	0.0019348870515823364	0		0.5794832763671875	-2.647359619140625	0		-1.0515537109375	-0.009689433097839355	0		-0.5239141235351562	-2.831531005859375	0		2.814736083984375	-1.52531396484375	0		4.212458984375	-0.83879541015625	0		5.34347998046875	-0.3659476318359375	0		5.9861943359375	0.48405596923828126	0		-0.18764642333984374	5.875935546875	0		
